<?xml version="1.0" encoding="utf-8" ?><svg xmlns="http://www.w3.org/2000/svg" xmlns:xlink="http://www.w3.org/1999/xlink" width="545" height="180" viewBox="0 0 545 180"><path transform="scale(2.57075 2.57143)" d="M40.3926 30.408C45.7409 31.8147 50.8231 31.7319 56.2475 32.2912C67.3677 33.4379 78.47 34.4102 89.5472 35.9441C94.2524 36.5957 98.9096 37.112 103.54 38.2493C112.031 40.335 119.115 44.3196 125.221 50.5215C126.176 51.4907 127.393 52.3351 128.102 53.5077L128.097 53.5766C128.028 54.6781 128.901 55.2875 128.424 56.2111L128.055 56.0754L127.844 55.5398C127.556 55.5339 127.245 55.5028 126.96 55.5378C125.195 53.408 123.601 51.3875 121.437 49.6248C110.465 40.6868 95.2506 38.7245 81.6272 37.1978C79.4589 36.9548 77.3054 36.5545 75.1332 36.3522C72.7213 36.1277 70.2891 36.1262 67.8807 35.872C64.895 35.5569 61.9796 35.0032 58.9729 34.8233C55.9955 34.6451 52.9374 34.9016 49.9892 34.6217C49.4546 34.571 48.904 34.3215 48.4436 34.0519L47.9137 34.1592C47.9792 35.3905 48.4584 36.6259 48.8267 37.7957C50.5974 43.4198 51.6856 45.5253 49.5221 51.2435C48.7591 53.2601 47.9134 55.3058 46.5812 57.0161C50.5481 57.0274 54.5348 57.1083 58.4996 56.9976C61.0388 56.9267 63.5688 56.6662 66.1092 56.6274C79.5367 56.3733 92.9686 56.4872 106.39 56.9689C109.282 57.0775 112.205 56.9434 115.089 57.1403C117.154 57.2814 119.196 57.6527 121.257 57.8388C123.505 58.0419 125.839 57.8324 128.064 58.1187C128.076 58.1244 128.088 58.1302 128.099 58.1358C128.337 58.2491 128.539 58.3246 128.805 58.3129C129.67 58.2746 130.241 58.7226 130.939 59.1751L131.223 59.7146C130.809 60.4291 130.349 60.5364 129.571 60.7692C127.065 61.0715 124.596 60.184 122.107 60.0541C119.548 59.9204 116.972 60.0229 114.41 59.9394C109.8 59.7892 105.277 59.4924 100.654 59.5306C96.3211 59.5664 92.0056 59.9215 87.6815 59.9669C82.7649 60.0184 77.7595 59.7588 72.8568 60.0653C70.502 60.2126 68.1717 60.6631 65.8146 60.783C59.7266 61.0925 53.5956 61.0009 47.5002 61.2105C44.6676 61.3079 41.8825 61.9284 39.0444 61.6694L38.9252 61.3871C39.8727 58.029 42.1667 54.962 43.5738 51.758C44.1328 50.4852 44.7731 49.0523 44.9594 47.6739C45.7041 42.1658 42.3591 35.4434 40.3926 30.408Z"/><defs><linearGradient id="gradient_0" gradientUnits="userSpaceOnUse" x1="174.73979" y1="26.201393" x2="153.45036" y2="51.549778"><stop offset="0" stop-color="black" stop-opacity="0.95686275"/><stop offset="1" stop-color="black" stop-opacity="0.98823529"/></linearGradient></defs><path fill="url(#gradient_0)" transform="scale(2.57075 2.57143)" d="M133.986 1.03436C135.247 0.97022 136.646 0.864868 137.902 1.02572C143.436 1.7344 176.736 25.5767 180.886 30.9713C180.324 31.7519 180.338 32.3445 179.425 32.7083C176.231 29.2881 172.414 26.0889 168.716 23.2195C163.965 19.5341 158.787 16.2701 153.807 12.8947C149.173 9.75359 144.403 6.13225 139.397 3.63764C138.569 3.22483 137.654 2.92361 136.724 2.8897C135.081 2.82982 133.761 3.65997 132.603 4.74661C131.628 5.66193 128.328 8.63678 128.204 9.79631C128.338 9.84105 128.539 9.9541 128.664 9.89186C132.424 8.02236 135.686 4.59824 140.181 6.09214C144.528 7.53664 148.409 10.729 152.111 13.3457C160.151 19.0297 178.658 32.7418 182.851 41.1868C183.466 42.4259 183.708 44.5472 183.279 45.8693C182.466 48.3682 174.962 52.8715 172.735 54.7639C170.826 56.3859 169.074 58.1729 167.35 59.9869C173.874 60.208 180.481 60.1209 187.007 59.984C191.012 59.8999 202.926 58.7648 206.006 59.7995L206.046 59.8146C207.207 60.2495 208.162 59.6093 208.895 60.9928C208.579 61.5663 208.118 61.7514 207.549 62.0086C203.525 61.8206 199.418 61.9757 195.386 61.975C190.336 61.9741 185.253 61.8524 180.207 62.0006C174.909 62.1562 169.777 62.5599 164.46 62.3756L164.087 61.8522C163.828 56.8383 179.578 48.7275 181.24 44.8518C181.61 43.9873 181.269 42.7514 180.929 41.9175C177.869 34.4025 156.338 19.1034 149.221 14.1432C146.426 12.1951 143.348 9.63795 140.19 8.32385C136.552 6.80977 133.211 9.59821 130.274 11.3062C129.088 11.9962 127.813 12.5398 126.546 13.0647L124.986 10.4984C127.344 6.81116 131.028 4.18996 133.986 1.03436Z"/><path transform="scale(2.57075 2.57143)" d="M38.3481 37.1359C39.8536 43.2835 38.9657 50.6354 35.6692 56.079C32.7237 60.943 27.2283 66.3646 21.5705 67.7515C17.7653 68.6843 13.6881 67.8829 10.3671 65.862C6.84416 63.7182 3.41256 59.6304 2.44385 55.5918C1.95514 53.5543 1.992 51.4734 1.97732 49.3932C1.94196 44.3813 2.08486 40.0395 4.79246 35.6432C8.32985 29.8995 14.413 26.0273 20.9143 24.4986C21.4168 24.3804 22.1625 24.1326 22.649 24.3634C21.6061 27.0954 6.90468 28.9557 6.94307 45.9643C6.95046 49.2422 7.02625 52.3085 8.40219 55.3657C9.61608 58.0629 11.5719 60.5345 14.41 61.5995C17.4897 62.7553 21.0719 62.3103 24.0136 60.9703C29.618 58.4177 33.9458 53.1187 36.0664 47.4156C36.9353 45.0788 37.2022 42.889 37.295 40.4131C37.6852 39.2726 37.6893 38.2111 38.3481 37.1359Z"/><defs><linearGradient id="gradient_1" gradientUnits="userSpaceOnUse" x1="154.23378" y1="40.278481" x2="142.38992" y2="67.484406"><stop offset="0" stop-color="black" stop-opacity="0.95294118"/><stop offset="1" stop-color="black"/></linearGradient></defs><path fill="url(#gradient_1)" transform="scale(2.57075 2.57143)" d="M149.674 37.6099L149.911 37.6L150.169 37.8409C149.734 38.895 146.575 40.0554 145.521 40.7157C142.507 42.6034 140.086 45.8677 139.291 49.3668C138.468 52.988 138.824 58.1319 140.829 61.2958C141.948 63.0941 143.747 64.3622 145.817 64.8108C148.275 65.3601 150.868 64.6078 152.956 63.2805C157.747 60.2341 161.426 53.999 161.093 48.2832C161.02 47.0392 160.065 44.9388 160.312 43.8775C160.334 43.7841 160.357 43.6928 160.39 43.6025L160.887 43.6308C162.247 44.9672 161.989 48.0139 162.725 49.8034C162.759 49.9818 162.779 50.1599 162.798 50.3401C163.181 53.9967 160.502 60.1958 158.184 63.046C155.826 65.946 152.929 68.6403 149.058 69.0303C145.703 69.3682 142.839 68.8341 140.193 66.6672C137.092 64.1278 135.541 60.6236 135.151 56.6956C134.698 52.1338 136.102 47.1267 139.022 43.578C141.591 40.4547 145.628 38.0111 149.674 37.6099Z"/><defs><linearGradient id="gradient_2" gradientUnits="userSpaceOnUse" x1="69.625343" y1="19.873837" x2="61.547775" y2="35.297653"><stop offset="0" stop-color="black" stop-opacity="0.95686275"/><stop offset="1" stop-color="black"/></linearGradient></defs><path fill="url(#gradient_2)" transform="scale(2.57075 2.57143)" d="M57.3277 11.6568C57.348 11.6989 57.3668 11.7408 57.3837 11.7844C58.3362 14.2568 55.6641 19.3064 54.6412 21.6883C54.0344 23.1012 53.2821 24.8843 53.8911 26.4102C55.5445 28.7594 65.9488 29.0152 68.897 29.3846C72.6958 29.8606 76.9526 30.2316 80.5089 31.6913L80.767 32.401L80.9083 32.2999C80.8665 32.3487 80.8228 32.3942 80.7743 32.4365C79.8103 33.2767 77.755 32.9547 76.5643 32.887C70.9964 31.2616 52.4198 31.6191 49.3437 29.6621C49.3051 29.3914 49.2966 29.1158 49.3442 28.8458C49.9237 25.5584 54.7363 13.4806 57.3277 11.6568Z"/><path transform="scale(2.57075 2.57143)" d="M180.886 30.9713C184.771 34.9545 209.793 57.7051 209.891 61.2956C209.549 61.7704 209.429 61.8855 208.82 61.9792C208.413 62.0419 207.962 62.0147 207.549 62.0086C208.118 61.7514 208.579 61.5663 208.895 60.9928C208.162 59.6093 207.207 60.2495 206.046 59.8146L206.006 59.7995C206.204 59.6359 206.232 59.3845 206.288 59.147C204.135 55.5353 183.228 35.4361 179.425 32.7083C180.338 32.3445 180.324 31.7519 180.886 30.9713Z"/><path transform="scale(2.57075 2.57143)" d="M128.102 53.5077C130.157 55.7646 131.689 58.4116 133.409 60.9226C132.131 60.8922 130.845 60.8891 129.571 60.7692C130.349 60.5364 130.809 60.4291 131.223 59.7146L130.939 59.1751C130.241 58.7226 129.67 58.2746 128.805 58.3129C128.539 58.3246 128.337 58.2491 128.099 58.1358C128.088 58.1302 128.076 58.1244 128.064 58.1187L128.369 57.8958C128.382 57.1781 127.363 56.2385 126.96 55.5378C127.245 55.5028 127.556 55.5339 127.844 55.5398L128.055 56.0754L128.424 56.2111C128.901 55.2875 128.028 54.6781 128.097 53.5766L128.102 53.5077Z"/><path transform="scale(2.57075 2.57143)" d="M37.295 40.4131C37.224 38.3999 36.3006 34.9633 36.5641 33.3908L36.8537 33.2687C38.0975 34.3577 38.1265 35.6091 38.3481 37.1359C37.6893 38.2111 37.6852 39.2726 37.295 40.4131Z"/></svg>